HIERARCHY
ROOT hip
{
  OFFSET 0 0 0
  CHANNELS 6 Xposition Yposition Zposition Zrotation Yrotation Xrotation
  JOINT abdomen
  {
    OFFSET 0 20.6881 -0.73152
    CHANNELS 3 Zrotation Xrotation Yrotation
    JOINT chest
    {
      OFFSET 0 11.7043 -0.48768
      CHANNELS 3 Zrotation Xrotation Yrotation
      JOINT neck
      {
        OFFSET 0 22.1894 -2.19456
        CHANNELS 3 Zrotation Xrotation Yrotation
        JOINT head
        {
          OFFSET -0.24384 7.07133 1.2192
          CHANNELS 3 Zrotation Xrotation Yrotation
          JOINT leftEye
          {
            OFFSET 4.14528 8.04674 8.04672
            CHANNELS 3 Zrotation Xrotation Yrotation
            End Site
            {
              OFFSET 1 0 0
            }
          }
          JOINT rightEye
          {
            OFFSET -3.6576 8.04674 8.04672
            CHANNELS 3 Zrotation Xrotation Yrotation
            End Site
            {
              OFFSET 1 0 0
            }
          }
        }
      }
      JOINT rCollar
      {
        OFFSET -2.68224 19.2634 -4.8768
        CHANNELS 3 Zrotation Xrotation Yrotation
        JOINT rShldr
        {
          OFFSET -8.77824 -1.95073 1.46304
          CHANNELS 3 Zrotation Xrotation Yrotation
          JOINT rForeArm
          {
            OFFSET -28.1742 -1.7115 0.48768
            CHANNELS 3 Zrotation Xrotation Yrotation
            JOINT rHand
            {
              OFFSET -22.5879 0.773209 7.07136
              CHANNELS 3 Zrotation Xrotation Yrotation
              JOINT rThumb1
              {
                OFFSET -1.2192 -0.487915 3.41376
                CHANNELS 3 Zrotation Xrotation Yrotation
                JOINT rThumb2
                {
                  OFFSET -3.37035 -0.52449 3.41376
                  CHANNELS 3 Zrotation Xrotation Yrotation
                  End Site
                  {
                    OFFSET -1.78271 -1.18214 1.43049
                  }
                }
              }
              JOINT rIndex1
              {
                OFFSET -7.75947 0.938293 5.60832
                CHANNELS 3 Zrotation Xrotation Yrotation
                JOINT rIndex2
                {
                  OFFSET -2.54057 -0.884171 1.56538
                  CHANNELS 3 Zrotation Xrotation Yrotation
                  End Site
                  {
                    OFFSET -1.62519 -0.234802 1.16502
                  }
                }
              }
              JOINT rMid1
              {
                OFFSET -8.24714 1.18213 3.41376
                CHANNELS 3 Zrotation Xrotation Yrotation
                JOINT rMid2
                {
                  OFFSET -3.10165 -0.590103 1.0647
                  CHANNELS 3 Zrotation Xrotation Yrotation
                  End Site
                  {
                    OFFSET -2.48547 -0.328903 0.83742
                  }
                }
              }
              JOINT rRing1
              {
                OFFSET -8.82822 0.546677 1.51678
                CHANNELS 3 Zrotation Xrotation Yrotation
                JOINT rRing2
                {
                  OFFSET -2.60934 -0.819778 -0.0198488
                  CHANNELS 3 Zrotation Xrotation Yrotation
                  End Site
                  {
                    OFFSET -2.33842 -0.294052 0.168128
                  }
                }
              }
              JOINT rPinky1
              {
                OFFSET -8.27202 -0.0477905 -0.4584
                CHANNELS 3 Zrotation Xrotation Yrotation
                JOINT rPinky2
                {
                  OFFSET -1.82734 -0.647385 -0.700984
                  CHANNELS 3 Zrotation Xrotation Yrotation
                  End Site
                  {
                    OFFSET -1.69225 -0.51767 -0.607171
                  }
                }
              }
            }
          }
        }
      }
      JOINT lCollar
      {
        OFFSET 2.68224 19.2634 -4.8768
        CHANNELS 3 Zrotation Xrotation Yrotation
        JOINT lShldr
        {
          OFFSET 8.77824 -1.95073 1.46304
          CHANNELS 3 Zrotation Xrotation Yrotation
          JOINT lForeArm
          {
            OFFSET 28.1742 -1.7115 0.48768
            CHANNELS 3 Zrotation Xrotation Yrotation
            JOINT lHand
            {
              OFFSET 22.5879 0.773209 7.07136
              CHANNELS 3 Zrotation Xrotation Yrotation
              JOINT lThumb1
              {
                OFFSET 1.2192 -0.487915 3.41376
                CHANNELS 3 Zrotation Xrotation Yrotation
                JOINT lThumb2
                {
                  OFFSET 3.37035 -0.52449 3.41376
                  CHANNELS 3 Zrotation Xrotation Yrotation
                  End Site
                  {
                    OFFSET 1.78271 -1.18214 1.43049
                  }
                }
              }
              JOINT lIndex1
              {
                OFFSET 7.75947 0.938293 5.60832
                CHANNELS 3 Zrotation Xrotation Yrotation
                JOINT lIndex2
                {
                  OFFSET 2.54057 -0.884171 1.56538
                  CHANNELS 3 Zrotation Xrotation Yrotation
                  End Site
                  {
                    OFFSET 1.62519 -0.234802 1.16502
                  }
                }
              }
              JOINT lMid1
              {
                OFFSET 8.24714 1.18213 3.41376
                CHANNELS 3 Zrotation Xrotation Yrotation
                JOINT lMid2
                {
                  OFFSET 3.10165 -0.590103 1.0647
                  CHANNELS 3 Zrotation Xrotation Yrotation
                  End Site
                  {
                    OFFSET 2.48547 -0.328903 0.83742
                  }
                }
              }
              JOINT lRing1
              {
                OFFSET 8.82822 0.546677 1.51678
                CHANNELS 3 Zrotation Xrotation Yrotation
                JOINT lRing2
                {
                  OFFSET 2.60934 -0.819778 -0.0198488
                  CHANNELS 3 Zrotation Xrotation Yrotation
                  End Site
                  {
                    OFFSET 2.33842 -0.294052 0.168128
                  }
                }
              }
              JOINT lPinky1
              {
                OFFSET 8.27202 -0.0477905 -0.4584
                CHANNELS 3 Zrotation Xrotation Yrotation
                JOINT lPinky2
                {
                  OFFSET 1.82734 -0.647385 -0.700984
                  CHANNELS 3 Zrotation Xrotation Yrotation
                  End Site
                  {
                    OFFSET 1.69225 -0.51767 -0.607171
                  }
                }
              }
            }
          }
        }
      }
    }
  }
  JOINT rButtock
  {
    OFFSET -8.77824 4.35084 1.2192
    CHANNELS 3 Zrotation Xrotation Yrotation
    JOINT rThigh
    {
      OFFSET 0 -1.70687 -2.19456
      CHANNELS 3 Zrotation Xrotation Yrotation
      JOINT rShin
      {
        OFFSET 0 -36.8199 0.73152
        CHANNELS 3 Zrotation Xrotation Yrotation
        JOINT rFoot
        {
          OFFSET 0.73152 -45.1104 -5.12064
          CHANNELS 3 Zrotation Xrotation Yrotation
          End Site
          {
            OFFSET -1.1221 -3.69964 12.103
          }
        }
      }
    }
  }
  JOINT lButtock
  {
    OFFSET 8.77824 4.35084 1.2192
    CHANNELS 3 Zrotation Xrotation Yrotation
    JOINT lThigh
    {
      OFFSET 0 -1.70687 -2.19456
      CHANNELS 3 Zrotation Xrotation Yrotation
      JOINT lShin
      {
        OFFSET 0 -36.8199 0.73152
        CHANNELS 3 Zrotation Xrotation Yrotation
        JOINT lFoot
        {
          OFFSET -0.73152 -45.1104 -5.12064
          CHANNELS 3 Zrotation Xrotation Yrotation
          End Site
          {
            OFFSET 1.1221 -3.69964 12.103
          }
        }
      }
    }
  }
}
MOTION
Frames:	5
Frame Time:	0.00833333
27.7149 79.9901 8.19004 38.8743 -81.1828 -27.5711 1.77847 3.97766 1.58061 0.429749 -4.73384 0.477635 -10.8919 -2.27814 -5.34105 10.4292 -0.964407 -7.26084 -0.0 0.0 0.0 -0.0 0.0 0.0 -2.1656e-13 -3.34432e-13 -2.8243e-13 77.4433 38.5077 9.89983 -24.3802 -19.824 50.8422 -0.00491707 -1.9755 -0.277755 4.44125e-10 -4.35708e-10 2.45025e-09 7.592e-10 -7.49408e-10 4.23866e-09 4.44132e-10 -4.35704e-10 2.45023e-09 7.73091 5.47488 0.417314 4.44122e-10 -4.35702e-10 2.45025e-09 2.90554 0.965183 0.102902 4.44126e-10 -4.35705e-10 2.45025e-09 10.2786 0.731801 0.0259123 4.44121e-10 -4.35701e-10 2.45026e-09 2.22167 -0.733487 -0.20892 -2.16567e-13 -3.34406e-13 -2.82749e-13 -84.0859 -13.8909 12.0957 8.18493 -3.1102 -14.4381 0.60473 21.6097 -3.18959 1.30929e-09 1.49214e-09 3.34701e-09 2.30974e-09 2.55847e-09 5.75881e-09 1.30929e-09 1.49214e-09 3.34702e-09 -7.73091 5.47488 -0.417314 1.30929e-09 1.49215e-09 3.34701e-09 -2.90554 0.965183 -0.102902 1.30928e-09 1.49214e-09 3.34701e-09 -10.2786 0.731801 -0.0259123 1.3093e-09 1.49214e-09 3.34701e-09 -2.22167 -0.733487 0.20892 -2.03217e-16 0.0 -3.88251e-19 10.4165 6.13239 3.9019 0.033493 9.94928 0.52731 -2.07357 -13.3459 -5.95188 2.03217e-16 0.0 3.88251e-19 12.438 -40.2515 -2.45003 0.154066 27.7698 -0.559567 3.53923 -5.27787 17.0891
26.6923 80.0235 8.8911 48.0407 -81.9226 -36.7728 1.39892 4.17258 1.82288 0.910174 -5.00233 0.566644 -10.9439 -2.2149 -5.21373 10.0769 -1.03383 -7.00257 -0.0 0.0 0.0 -0.0 0.0 0.0 -2.39336e-13 -8.98411e-13 -1.84618e-13 77.8186 37.748 8.87442 -24.4277 -19.917 51.003 -0.00590985 -2.15064 -0.302408 1.68132e-10 -7.8109e-10 3.54131e-09 2.78432e-10 -1.34543e-09 6.12402e-09 1.68135e-10 -7.81088e-10 3.54129e-09 7.73091 5.47488 0.417314 1.6813e-10 -7.81085e-10 3.54131e-09 2.90554 0.965183 0.102902 1.68134e-10 -7.81087e-10 3.54131e-09 10.2786 0.731801 0.0259123 1.68126e-10 -7.81083e-10 3.54132e-09 2.22167 -0.733487 -0.20892 -2.39325e-13 -8.98378e-13 -1.84895e-13 -84.4835 -12.072 11.7897 8.48334 -3.26841 -14.989 0.515248 20.0533 -2.93847 1.66956e-09 3.12255e-09 5.22393e-09 2.95731e-09 5.37016e-09 8.99823e-09 1.66956e-09 3.12255e-09 5.22394e-09 -7.73091 5.47488 -0.417314 1.66957e-09 3.12255e-09 5.22392e-09 -2.90554 0.965183 -0.102902 1.66955e-09 3.12255e-09 5.22393e-09 -10.2786 0.731801 -0.0259123 1.66957e-09 3.12255e-09 5.22392e-09 -2.22167 -0.733487 0.20892 -2.03217e-16 0.0 -3.88251e-19 9.53752 8.34825 4.61105 0.0415768 7.45684 0.501011 -1.9339 -12.312 -5.92172 2.03217e-16 0.0 3.88251e-19 12.0136 -40.2026 -3.01598 0.133623 25.8957 -0.566601 4.24476 -5.92035 19.6345
25.6104 80.1358 9.78825 58.059 -81.7239 -46.9263 0.936935 4.40664 2.1301 1.4315 -5.26563 0.675909 -11.0092 -2.11852 -5.09662 9.75154 -1.12301 -6.76489 -0.0 0.0 0.0 -0.0 0.0 0.0 -2.46009e-13 -1.40435e-12 -8.26832e-14 78.1862 36.8935 7.80089 -24.4449 -19.9513 51.0586 -0.00692054 -2.34005 -0.329069 -3.63372e-11 -1.19442e-09 4.20864e-09 -7.75879e-11 -2.0595e-09 7.27689e-09 -3.63377e-11 -1.19441e-09 4.20862e-09 7.73091 5.47488 0.417314 -3.63386e-11 -1.19441e-09 4.20864e-09 2.90554 0.965183 0.102902 -3.63345e-11 -1.19441e-09 4.20864e-09 10.2786 0.731801 0.0259123 -3.63458e-11 -1.19441e-09 4.20865e-09 2.22167 -0.733487 -0.20892 -2.45983e-13 -1.40431e-12 -8.29157e-14 -84.8678 -10.1114 11.5001 8.84879 -3.46796 -15.6644 0.425084 18.2497 -2.6552 1.96535e-09 4.37227e-09 6.4141e-09 3.48229e-09 7.52464e-09 1.10529e-08 1.96535e-09 4.37227e-09 6.41411e-09 -7.73091 5.47488 -0.417314 1.96535e-09 4.37226e-09 6.41409e-09 -2.90554 0.965183 -0.102902 1.96534e-09 4.37227e-09 6.4141e-09 -10.2786 0.731801 -0.0259123 1.96536e-09 4.37227e-09 6.41409e-09 -2.22167 -0.733487 0.20892 -2.03217e-16 0.0 -3.88251e-19 8.52288 10.5215 5.40224 0.0477555 5.15066 0.47581 -1.75843 -11.3029 -5.71347 2.03217e-16 0.0 3.88251e-19 11.5521 -40.0644 -3.50225 0.114624 24.1963 -0.575456 4.9543 -6.55809 21.8807
24.6513 80.0455 10.4447 58.2243 -82.2827 -47.3656 0.654683 4.6748 2.41769 1.80371 -5.46437 0.773976 -11.0551 -2.05699 -5.01964 9.53602 -1.23102 -6.60177 -0.0 0.0 0.0 -0.0 0.0 0.0 -2.46495e-13 -1.74912e-12 -7.85199e-15 78.5287 35.8783 6.83905 -24.4167 -19.8968 50.9559 -0.00823506 -2.59013 -0.364269 -1.38477e-10 -1.43184e-09 4.41407e-09 -2.55169e-10 -2.47001e-09 7.63174e-09 -1.38479e-10 -1.43184e-09 4.41405e-09 7.73091 5.47488 0.417314 -1.38477e-10 -1.43183e-09 4.41408e-09 2.90554 0.965183 0.102902 -1.38473e-10 -1.43183e-09 4.41408e-09 10.2786 0.731801 0.0259123 -1.38486e-10 -1.43183e-09 4.41409e-09 2.22167 -0.733487 -0.20892 -2.46458e-13 -1.74909e-12 -8.05078e-15 -85.1382 -8.27725 11.172 9.25715 -3.702 -16.4157 0.34512 16.48 -2.38285 2.11006e-09 5.06398e-09 6.85158e-09 3.73656e-09 8.71837e-09 1.18089e-08 2.11005e-09 5.06398e-09 6.85159e-09 -7.73091 5.47488 -0.417314 2.11006e-09 5.06398e-09 6.85157e-09 -2.90554 0.965183 -0.102902 2.11005e-09 5.06398e-09 6.85158e-09 -10.2786 0.731801 -0.0259123 2.11007e-09 5.06399e-09 6.85156e-09 -2.22167 -0.733487 0.20892 -2.03217e-16 0.0 -3.88251e-19 7.61491 12.3259 6.0315 0.0505704 3.50268 0.456667 -1.60845 -10.537 -5.43341 2.03217e-16 0.0 3.88251e-19 11.1453 -39.9703 -3.89813 0.0991712 22.7828 -0.575943 5.4764 -6.97201 23.4774
23.8234 79.8876 10.8637 52.4021 -83.2268 -41.5111 0.657599 5.00711 2.69991 1.94737 -5.58218 0.862189 -11.0962 -2.0258 -5.00717 9.516 -1.41236 -6.55015 -0.0 0.0 0.0 -0.0 0.0 0.0 -2.33932e-13 -1.8926e-12 3.57878e-14 78.8644 34.6332 6.03305 -24.3363 -19.7382 50.6947 -0.0103171 -2.92813 -0.411872 -1.19883e-10 -1.396e-09 3.8764e-09 -2.21502e-10 -2.40916e-09 6.7028e-09 -1.19885e-10 -1.396e-09 3.87639e-09 7.73091 5.47488 0.417314 -1.19883e-10 -1.396e-09 3.87641e-09 2.90554 0.965183 0.102902 -1.19879e-10 -1.396e-09 3.87641e-09 10.2786 0.731801 0.0259123 -1.19891e-10 -1.396e-09 3.87642e-09 2.22167 -0.733487 -0.20892 -2.33881e-13 -1.89257e-12 3.56096e-14 -85.2563 -6.58149 10.7658 9.71821 -3.97606 -17.2681 0.271908 14.7416 -2.11887 1.96815e-09 4.9887e-09 6.09185e-09 3.48043e-09 8.59272e-09 1.04997e-08 1.96814e-09 4.9887e-09 6.09186e-09 -7.73091 5.47488 -0.417314 1.96815e-09 4.98869e-09 6.09184e-09 -2.90554 0.965183 -0.102902 1.96814e-09 4.9887e-09 6.09185e-09 -10.2786 0.731801 -0.0259123 1.96816e-09 4.9887e-09 6.09184e-09 -2.22167 -0.733487 0.20892 -2.03217e-16 0.0 -3.88251e-19 6.93515 13.6096 6.45308 0.0505084 2.76452 0.443769 -1.50144 -10.1678 -5.08106 2.03217e-16 0.0 3.88251e-19 10.8367 -39.9565 -4.32932 0.0888495 21.6775 -0.563338 5.73505 -7.08835 24.4331
